<svg xmlns="http://www.w3.org/2000/svg" viewBox="0 0 900 360" role="img" aria-labelledby="title-HUBS">
<title id="title-HUBS">HUBS — HUBSPOT, INC. closing-price history</title>
<rect width="100%" height="100%" fill="#fff"/>
<text x="68" y="25" fill="#24292f" font-family="system-ui,sans-serif" font-size="16" font-weight="600">HUBS — HUBSPOT, INC.</text>
<line x1="68" y1="318.0" x2="880" y2="318.0" stroke="#eaeef2" stroke-width="1"/>
<text x="60" y="321.0" text-anchor="end" fill="#57606a" font-family="system-ui,sans-serif" font-size="11">$131</text>
<line x1="68" y1="251.5" x2="880" y2="251.5" stroke="#eaeef2" stroke-width="1"/>
<text x="60" y="254.5" text-anchor="end" fill="#57606a" font-family="system-ui,sans-serif" font-size="11">$313</text>
<line x1="68" y1="185.0" x2="880" y2="185.0" stroke="#eaeef2" stroke-width="1"/>
<text x="60" y="188.0" text-anchor="end" fill="#57606a" font-family="system-ui,sans-serif" font-size="11">$495</text>
<line x1="68" y1="118.5" x2="880" y2="118.5" stroke="#eaeef2" stroke-width="1"/>
<text x="60" y="121.5" text-anchor="end" fill="#57606a" font-family="system-ui,sans-serif" font-size="11">$677</text>
<line x1="68" y1="52.0" x2="880" y2="52.0" stroke="#eaeef2" stroke-width="1"/>
<text x="60" y="55.0" text-anchor="end" fill="#57606a" font-family="system-ui,sans-serif" font-size="11">$859</text>
<text x="68.0" y="342" text-anchor="middle" fill="#57606a" font-family="system-ui,sans-serif" font-size="11">Sep 2024</text>
<text x="273.0" y="342" text-anchor="middle" fill="#57606a" font-family="system-ui,sans-serif" font-size="11">Mar 2025</text>
<text x="476.8" y="342" text-anchor="middle" fill="#57606a" font-family="system-ui,sans-serif" font-size="11">Sep 2025</text>
<text x="679.5" y="342" text-anchor="middle" fill="#57606a" font-family="system-ui,sans-serif" font-size="11">Mar 2026</text>
<text x="880.0" y="342" text-anchor="middle" fill="#57606a" font-family="system-ui,sans-serif" font-size="11">Sep 2026</text>
<polyline points="68.0,185.2 69.1,186.0 70.2,184.0 71.4,185.9 72.5,186.4 75.8,184.8 77.0,186.0 78.1,181.8 79.2,172.2 80.3,173.3 83.7,173.2 84.8,171.4 85.9,171.8 87.0,170.4 88.2,170.0 91.5,171.6 92.6,173.4 93.8,177.8 94.9,176.8 96.0,170.4 99.4,175.1 100.5,171.3 101.6,168.2 102.7,163.6 103.8,161.4 107.2,161.2 108.3,165.5 109.4,171.4 110.6,171.0 111.7,169.6 115.0,171.1 116.2,171.6 117.3,171.5 118.4,163.3 119.5,159.2 122.9,161.9 124.0,160.1 125.1,160.8 126.2,163.1 127.4,159.3 130.7,159.6 131.8,154.5 133.0,147.4 134.1,130.3 135.2,125.9 138.6,117.1 139.7,109.5 140.8,110.0 141.9,111.4 143.0,118.4 146.4,121.6 147.5,116.4 148.6,112.0 149.8,102.7 150.9,94.4 154.2,98.4 155.4,99.1 156.5,101.7 158.7,102.3 162.1,101.4 163.2,102.9 164.3,89.0 165.4,96.2 166.6,94.8 169.9,96.4 171.0,102.5 172.2,100.5 173.3,97.4 174.4,102.0 177.8,92.9 178.9,94.8 180.0,107.5 181.1,109.1 182.2,103.1 185.6,104.6 186.7,102.2 189.0,101.0 190.1,107.0 193.4,110.2 194.6,111.2 196.8,111.0 197.9,109.0 201.3,107.2 202.4,109.6 203.5,106.6 205.8,108.4 209.1,110.3 210.2,108.8 211.4,106.7 212.5,103.7 213.6,108.4 218.1,100.5 219.2,99.0 220.3,96.5 221.4,100.3 224.8,88.7 225.9,75.4 227.0,81.6 228.2,83.7 229.3,80.9 232.6,86.3 233.8,86.8 234.9,80.9 236.0,81.5 237.1,84.0 240.5,71.4 241.6,79.1 242.7,78.8 243.8,66.2 245.0,69.1 249.4,72.2 250.6,84.1 251.7,92.5 252.8,100.4 256.2,101.3 257.3,102.7 258.4,101.1 259.5,105.2 260.6,101.3 264.0,107.2 265.1,114.7 266.2,110.6 267.4,127.5 268.5,131.9 271.8,151.5 273.0,150.0 274.1,142.6 275.2,147.2 276.3,143.2 279.7,141.8 280.8,147.7 281.9,144.9 283.0,147.3 284.2,144.3 287.5,136.8 288.6,136.7 289.8,143.4 290.9,149.0 292.0,153.1 295.4,157.1 296.5,153.2 297.6,149.2 298.7,173.0 299.8,182.6 303.2,183.7 304.3,187.9 305.4,165.2 306.6,176.3 307.7,173.0 311.0,173.1 312.2,165.9 313.3,167.1 314.4,168.7 318.9,176.2 320.0,167.9 321.1,159.0 322.2,146.4 323.4,140.9 326.7,142.1 327.8,142.0 329.0,142.4 330.1,137.8 331.2,133.5 334.6,132.2 335.7,134.9 336.8,130.6 337.9,124.5 339.0,145.5 342.4,123.7 343.5,120.2 344.6,121.0 345.8,123.2 346.9,124.4 350.2,129.0 351.4,131.3 352.5,138.8 353.6,136.4 354.7,141.1 359.2,140.6 360.3,140.4 361.4,154.6 362.6,150.3 365.9,149.5 367.0,146.6 368.2,146.9 369.3,145.6 370.4,143.2 373.8,144.4 374.9,153.2 376.0,156.3 377.1,157.6 378.2,163.2 381.6,165.0 382.7,163.1 383.8,166.9 386.1,170.5 389.4,169.8 390.6,162.2 391.7,167.3 392.8,165.7 393.9,164.7 397.3,162.5 398.4,162.0 399.5,166.3 400.6,160.9 405.1,162.8 406.2,162.2 407.4,161.0 408.5,163.5 409.6,174.3 413.0,169.1 414.1,172.6 415.2,168.0 416.3,172.7 417.4,167.7 420.8,166.1 421.9,165.0 423.0,160.9 424.2,164.1 425.3,161.4 428.6,161.5 429.8,165.5 430.9,169.2 432.0,176.0 433.1,183.7 436.5,182.4 437.6,186.0 438.7,185.9 439.8,197.1 441.0,201.6 444.3,212.1 445.4,211.0 446.6,205.9 447.7,208.8 448.8,205.3 452.2,202.1 453.3,204.0 454.4,200.1 455.5,199.3 456.6,192.6 460.0,194.9 461.1,198.8 462.2,194.3 463.4,191.8 464.5,189.3 469.0,193.6 470.1,193.1 471.2,196.2 472.3,187.7 475.7,183.7 476.8,182.3 477.9,187.1 479.0,184.3 480.2,186.3 483.5,180.2 484.6,182.2 485.8,180.5 486.9,178.4 488.0,176.3 491.4,174.8 492.5,178.4 493.6,177.6 494.7,180.7 495.8,176.7 499.2,175.9 500.3,194.9 501.4,205.0 502.6,203.2 503.7,200.8 507.0,196.5 508.2,201.3 509.3,198.0 510.4,200.4 511.5,205.2 514.9,201.5 516.0,199.0 517.1,203.1 518.2,207.8 519.4,206.3 522.7,200.9 523.8,191.2 525.0,194.3 526.1,192.0 527.2,194.3 530.6,193.4 531.7,194.3 532.8,195.6 533.9,191.4 535.0,186.1 538.4,185.2 539.5,193.4 540.6,196.1 541.8,221.6 542.9,220.3 546.2,224.7 547.4,221.6 548.5,221.7 549.6,223.2 550.7,221.1 554.1,231.0 555.2,231.3 556.3,233.7 557.4,235.4 558.6,236.1 561.9,235.6 563.0,230.2 564.2,233.7 566.4,231.7 569.8,229.5 570.9,229.5 572.0,228.9 573.1,228.1 574.2,227.1 577.6,225.1 578.7,224.9 579.8,222.5 581.0,224.4 582.1,228.5 585.4,232.6 586.6,230.6 587.7,224.3 588.8,223.4 589.9,223.6 593.3,219.4 594.4,220.8 595.5,220.6 597.8,220.4 601.1,220.0 602.2,217.6 603.4,219.3 605.6,226.2 609.0,227.2 610.1,221.2 611.2,220.4 612.3,230.7 613.4,230.1 616.8,228.5 617.9,234.8 619.0,239.7 620.2,245.6 621.3,252.0 625.8,254.6 626.9,255.5 628.0,249.2 629.1,248.0 632.5,245.7 633.6,249.1 634.7,250.1 635.8,263.1 637.0,263.6 640.3,265.8 641.4,276.4 642.6,276.8 643.7,284.3 644.8,281.0 648.2,281.5 649.3,281.2 650.4,289.5 651.5,282.3 652.6,276.8 657.1,275.6 658.2,274.5 659.4,278.5 660.5,280.6 663.8,286.5 665.0,281.0 666.1,276.2 667.2,267.8 668.3,269.3 671.7,269.6 672.8,265.3 673.9,264.1 675.0,259.4 676.2,257.6 679.5,261.1 680.6,267.5 681.8,271.3 682.9,271.8 684.0,269.4 687.4,269.3 688.5,268.9 689.6,270.2 690.7,270.1 691.8,271.4 695.2,270.2 696.3,279.0 697.4,279.0 698.6,276.4 699.7,281.6 703.0,279.1 704.2,276.8 705.3,277.2 706.4,276.5 710.9,276.4 712.0,282.8 713.1,286.3 714.2,291.0 715.4,295.7 718.7,291.0 719.8,290.5 721.0,286.1 722.1,284.5 723.2,284.7 726.6,282.0 727.7,281.7 728.8,280.9 729.9,287.5 731.0,284.4 734.4,283.7 735.5,283.4 736.6,282.9 737.8,284.9 738.9,278.3 742.2,275.5 743.4,276.0 744.5,280.0 745.6,276.9 746.7,293.9 750.1,296.0 751.2,300.3 752.3,300.6 753.4,298.9 754.6,293.5 757.9,289.8 759.0,289.9 760.2,291.6 761.3,293.5 762.4,292.2 766.9,293.6 768.0,292.6 769.1,293.3 770.2,285.3 773.6,270.1 774.7,278.2 775.8,284.7 777.0,285.4 778.1,288.3 781.4,289.9 782.6,293.7 783.7,295.5 784.8,297.8 785.9,297.3 789.3,298.0 790.4,299.2 791.5,301.4 792.6,301.6 797.1,302.8 798.2,302.6 799.4,299.9 800.5,303.8 801.6,298.2 805.0,298.6 806.1,299.3 807.2,297.4 808.3,295.8 812.8,295.1 813.9,291.0 815.0,293.7 816.2,290.7 817.3,290.1 820.6,286.4 821.8,289.3 822.9,287.3 824.0,283.9 825.1,284.0 828.5,281.5 829.6,286.1 830.7,291.1 831.8,296.5 833.0,291.1 836.3,284.5 837.4,279.0 838.6,274.2 839.7,280.8 840.8,279.2 844.2,278.3 845.3,275.0 846.4,274.5 847.5,292.0 848.6,289.1 852.0,287.1 853.1,285.4 854.2,289.2 855.4,278.1 856.5,284.1 859.8,287.3 861.0,283.3 862.1,277.6 863.2,278.3 864.3,278.2 867.7,276.7 868.8,279.1 869.9,279.3 871.0,272.5 872.2,270.7 875.5,270.4 876.6,274.2 877.8,276.2 878.9,272.7 880.0,275.5" fill="none" stroke="#1f6feb" stroke-width="2" stroke-linejoin="round" stroke-linecap="round" vector-effect="non-scaling-stroke"/>
<polygon points="446.6,198.9 440.6,210.9 452.6,210.9" fill="#1a7f37" stroke="#fff" stroke-width="1"/>
<polygon points="546.2,217.7 540.2,229.7 552.2,229.7" fill="#1a7f37" stroke="#fff" stroke-width="1"/>
<polygon points="877.8,269.2 871.8,281.2 883.8,281.2" fill="#1a7f37" stroke="#fff" stroke-width="1"/>
<polygon points="446.6,212.9 440.6,200.9 452.6,200.9" fill="#cf222e" stroke="#fff" stroke-width="1"/>
<polygon points="601.1,227.0 595.1,215.0 607.1,215.0" fill="#cf222e" stroke="#fff" stroke-width="1"/>
</svg>
