<svg xmlns="http://www.w3.org/2000/svg" viewBox="0 0 900 360" role="img" aria-labelledby="title-LTGHY">
<title id="title-LTGHY">LTGHY — LIFE HLTHCRE GRP USP/ADR closing-price history</title>
<rect width="100%" height="100%" fill="#fff"/>
<text x="68" y="25" fill="#24292f" font-family="system-ui,sans-serif" font-size="16" font-weight="600">LTGHY — LIFE HLTHCRE GRP USP/ADR</text>
<line x1="68" y1="318.0" x2="880" y2="318.0" stroke="#eaeef2" stroke-width="1"/>
<text x="60" y="321.0" text-anchor="end" fill="#57606a" font-family="system-ui,sans-serif" font-size="11">$2.29</text>
<line x1="68" y1="251.5" x2="880" y2="251.5" stroke="#eaeef2" stroke-width="1"/>
<text x="60" y="254.5" text-anchor="end" fill="#57606a" font-family="system-ui,sans-serif" font-size="11">$2.76</text>
<line x1="68" y1="185.0" x2="880" y2="185.0" stroke="#eaeef2" stroke-width="1"/>
<text x="60" y="188.0" text-anchor="end" fill="#57606a" font-family="system-ui,sans-serif" font-size="11">$3.24</text>
<line x1="68" y1="118.5" x2="880" y2="118.5" stroke="#eaeef2" stroke-width="1"/>
<text x="60" y="121.5" text-anchor="end" fill="#57606a" font-family="system-ui,sans-serif" font-size="11">$3.71</text>
<line x1="68" y1="52.0" x2="880" y2="52.0" stroke="#eaeef2" stroke-width="1"/>
<text x="60" y="55.0" text-anchor="end" fill="#57606a" font-family="system-ui,sans-serif" font-size="11">$4.18</text>
<text x="68.0" y="342" text-anchor="middle" fill="#57606a" font-family="system-ui,sans-serif" font-size="11">Sep 2024</text>
<text x="275.8" y="342" text-anchor="middle" fill="#57606a" font-family="system-ui,sans-serif" font-size="11">Mar 2025</text>
<text x="475.9" y="342" text-anchor="middle" fill="#57606a" font-family="system-ui,sans-serif" font-size="11">Aug 2025</text>
<text x="679.9" y="342" text-anchor="middle" fill="#57606a" font-family="system-ui,sans-serif" font-size="11">Jan 2026</text>
<text x="880.0" y="342" text-anchor="middle" fill="#57606a" font-family="system-ui,sans-serif" font-size="11">Jun 2026</text>
<polyline points="68.0,122.5 69.3,116.8 70.6,114.0 71.8,98.6 73.1,115.3 77.0,123.9 78.3,112.6 79.5,107.0 80.8,107.2 82.1,108.4 86.0,100.0 88.5,111.5 89.8,97.2 91.1,98.6 94.9,104.2 96.2,106.7 97.5,107.0 98.8,104.9 100.1,119.7 103.9,95.8 105.2,88.7 106.5,109.8 107.8,100.7 109.0,115.4 112.9,95.8 114.2,118.9 115.5,132.3 116.7,132.3 118.0,135.1 121.9,119.7 123.2,118.2 124.4,123.7 125.7,118.2 127.0,101.4 130.9,112.6 132.1,121.1 133.4,131.6 134.7,134.4 136.0,134.4 139.8,118.2 141.1,126.7 142.4,118.9 143.7,108.4 145.0,126.0 148.8,122.5 150.1,103.1 151.4,98.6 153.9,126.7 157.8,119.7 159.1,112.6 160.4,112.6 161.6,96.5 166.8,86.5 168.1,98.6 169.3,85.4 170.6,76.1 171.9,66.2 175.8,102.8 177.0,115.4 178.3,146.4 179.6,142.1 180.9,137.2 184.7,145.7 186.0,159.5 188.6,157.6 189.9,154.8 193.7,159.0 195.0,163.2 197.6,153.4 198.8,153.4 202.7,142.1 204.0,147.8 205.3,157.6 207.8,189.9 211.7,171.6 213.0,168.8 214.2,166.0 215.5,161.8 216.8,171.7 221.9,163.2 223.2,154.8 224.5,151.3 225.8,157.6 229.6,173.1 230.9,167.4 232.2,161.8 233.5,161.8 234.8,159.0 238.6,185.7 239.9,180.1 241.2,176.6 242.5,177.3 243.7,166.0 247.6,195.5 248.9,198.4 250.2,194.1 251.4,178.7 252.7,187.1 257.9,187.1 259.1,187.8 260.4,163.2 261.7,177.3 265.5,181.5 266.8,187.1 268.1,184.3 269.4,188.5 270.7,192.7 274.5,170.2 275.8,196.9 277.1,209.6 278.4,212.4 279.7,204.7 283.5,211.6 284.8,213.8 286.1,213.1 287.4,220.8 288.6,211.0 292.5,218.0 293.8,216.6 295.1,214.5 296.3,218.0 297.6,222.2 301.5,211.0 302.7,215.9 304.0,205.4 305.3,210.7 306.6,216.6 310.4,218.7 311.7,215.2 313.0,226.5 314.3,240.5 315.6,240.5 319.4,263.8 320.7,253.9 322.0,246.1 323.3,251.8 324.6,244.7 328.4,230.7 329.7,243.3 331.0,223.6 332.3,213.8 337.4,220.1 338.7,215.2 339.9,220.8 341.2,206.8 342.5,241.9 346.4,189.9 347.6,202.6 348.9,209.6 350.2,191.3 351.5,174.5 355.3,173.1 356.6,178.4 357.9,177.3 359.2,184.3 360.5,204.0 364.3,180.1 365.6,190.1 366.9,186.4 368.2,189.9 369.5,167.4 373.3,189.1 374.6,195.7 375.9,189.9 377.2,196.9 378.4,192.7 383.6,219.4 384.8,216.6 386.1,199.7 387.4,194.1 391.3,199.8 392.5,208.2 393.8,175.9 395.1,182.9 396.4,173.1 400.2,194.8 401.5,199.8 402.8,189.9 404.1,191.3 405.4,233.5 409.2,206.8 410.5,208.2 411.8,213.8 414.4,189.9 418.2,188.5 419.5,193.4 420.8,208.2 422.0,199.8 423.3,201.2 427.2,194.1 428.5,189.9 429.7,194.1 431.0,178.7 436.2,196.9 437.4,202.6 438.7,201.1 440.0,198.4 441.3,189.9 445.1,209.6 446.4,189.9 447.7,210.3 449.0,220.8 450.3,227.9 454.1,195.6 455.4,204.3 456.7,209.2 458.0,196.9 459.2,216.6 463.1,225.8 464.4,220.8 465.7,222.2 466.9,227.9 468.2,237.7 472.1,230.7 473.4,216.6 474.6,227.9 475.9,210.9 477.2,209.6 481.1,198.4 482.3,200.5 483.6,194.8 484.9,208.2 486.2,191.3 490.0,191.3 491.3,199.8 492.6,203.1 493.9,212.7 495.2,191.3 499.0,192.7 500.3,202.6 501.6,213.7 502.9,212.4 504.1,212.4 509.3,206.8 510.6,192.7 511.8,221.0 513.1,230.7 517.0,219.4 518.3,226.5 519.5,211.0 520.8,196.9 522.1,201.2 526.0,194.1 527.2,196.9 528.5,210.6 529.8,206.8 531.1,277.0 534.9,282.7 536.2,274.2 537.5,270.9 538.8,267.2 540.1,268.6 543.9,253.2 545.2,266.5 546.5,253.2 547.8,258.2 549.0,250.3 552.9,248.6 554.2,255.3 555.5,251.8 556.7,260.2 558.0,246.1 561.9,246.1 563.2,258.8 564.4,260.2 565.7,261.6 567.0,261.6 570.8,257.4 572.1,263.0 573.4,257.4 574.7,257.4 576.0,255.3 579.8,253.2 581.1,236.3 582.4,253.2 583.7,258.8 585.0,263.0 588.8,258.8 590.1,265.8 591.4,261.6 592.7,256.0 593.9,268.6 597.8,248.9 599.1,244.7 600.4,239.1 601.6,244.6 602.9,244.7 606.8,251.8 608.1,258.8 609.3,288.3 610.6,295.3 611.9,296.7 615.7,298.1 617.0,293.9 618.3,303.8 620.9,289.0 624.7,279.9 626.0,274.2 627.3,281.3 628.6,282.0 629.9,280.5 633.7,284.8 635.0,288.2 636.3,287.6 637.6,277.0 638.8,261.6 642.7,251.8 644.0,259.5 645.3,260.2 646.5,232.1 647.8,244.7 651.7,260.2 652.9,257.4 654.2,255.1 656.8,257.4 660.6,259.5 661.9,260.2 663.2,260.2 665.8,257.4 669.6,248.9 670.9,239.1 672.2,244.7 673.5,248.9 674.8,254.6 678.6,248.9 679.9,248.9 681.2,260.2 682.5,248.2 683.7,239.1 688.9,223.6 690.1,226.5 691.4,226.5 692.7,234.9 696.6,220.8 697.8,226.5 699.1,248.9 700.4,230.7 701.7,257.4 705.5,249.6 706.8,241.2 708.1,253.2 709.4,264.4 710.7,243.3 714.5,255.3 715.8,244.8 717.1,251.8 718.4,256.0 719.7,239.8 724.8,241.1 726.1,236.3 727.3,234.9 728.6,213.8 732.5,204.0 733.8,204.0 735.0,204.0 736.3,212.4 737.6,204.0 741.5,213.8 742.7,243.3 744.0,253.2 745.3,244.7 746.6,257.4 750.4,260.2 751.7,260.2 753.0,263.0 754.3,284.1 755.6,278.5 759.4,261.6 760.7,271.4 762.0,277.0 763.3,295.3 764.5,292.6 768.4,289.7 769.7,240.5 771.0,263.0 772.2,267.9 773.5,263.0 777.4,270.0 778.7,253.2 779.9,250.3 781.2,236.3 786.4,241.9 787.6,256.0 788.9,202.6 790.2,220.8 791.5,220.8 795.3,218.0 796.6,216.6 797.9,216.5 799.2,215.2 800.5,208.2 804.3,167.4 805.6,194.1 806.9,216.6 808.2,226.5 809.4,221.5 813.3,216.6 814.6,221.7 815.9,222.2 817.1,211.0 818.4,221.5 822.3,218.0 823.6,227.9 824.8,219.4 826.1,260.2 827.4,270.0 831.3,263.0 832.5,271.1 833.8,271.4 835.1,261.6 836.4,272.8 840.2,264.4 841.5,272.8 842.8,271.4 844.1,263.0 845.4,254.6 850.5,266.5 851.8,253.2 853.1,279.8 854.3,276.3 858.2,277.0 859.5,279.6 860.8,292.6 862.0,284.1 863.3,296.7 867.2,300.2 868.5,303.8 869.7,297.4 871.0,291.8 872.3,272.8 876.2,284.1 877.4,285.5 878.7,285.5 880.0,293.9" fill="none" stroke="#1f6feb" stroke-width="2" stroke-linejoin="round" stroke-linecap="round" vector-effect="non-scaling-stroke"/>
<polygon points="552.9,255.6 546.9,243.6 558.9,243.6" fill="#cf222e" stroke="#fff" stroke-width="1"/>
</svg>
